<svg xmlns="http://www.w3.org/2000/svg" width="1227" height="872" viewBox="0 0 1227 872"><g transform="translate(-366 -304)"><rect width="1227" height="872" transform="translate(366 304)" fill="#fff"/><g transform="translate(-5.006 27.429)"><g transform="translate(431 460)" fill="rgba(0,144,223,0.3)" opacity="0.59"><path d="M 509.1138305664063 607.4994506835938 L 304.048828125 607.4994506835938 C 300.1449584960938 607.4994506835938 296.3580932617188 606.7350463867188 292.7935180664063 605.2273559570313 C 289.3502502441406 603.7710571289063 286.2576599121094 601.68603515625 283.601806640625 599.0303344726563 C 280.9459533691406 596.3744506835938 278.8609619140625 593.2820434570313 277.404541015625 589.8387451171875 C 275.8968200683594 586.2740478515625 275.1322326660156 582.487060546875 275.1322326660156 578.5830688476563 C 275.1322326660156 574.67919921875 275.8968200683594 570.892333984375 277.404541015625 567.3277587890625 C 278.8609619140625 563.8844604492188 280.9461059570313 560.7918701171875 283.601806640625 558.1360473632813 C 286.2576599121094 555.4801635742188 289.3502502441406 553.3952026367188 292.7935180664063 551.9387817382813 C 296.3582458496094 550.430908203125 300.1449584960938 549.6664428710938 304.048828125 549.6664428710938 L 509.1138305664063 549.6664428710938 C 510.0586853027344 549.6664428710938 511.0123901367188 549.7125854492188 511.9482421875 549.8037719726563 L 512.0088500976563 549.4351806640625 L 563.3253173828125 549.4351806640625 C 557.8223876953125 551.5884399414063 553.89453125 556.9688110351563 553.89453125 563.1831665039063 C 553.89453125 569.39697265625 557.8242797851563 574.77880859375 563.3280639648438 576.9310302734375 L 538.5081176757813 576.9310302734375 L 537.988525390625 576.9310302734375 L 538.008544921875 577.4503173828125 C 538.02294921875 577.827880859375 538.0303955078125 578.2090454101563 538.0303955078125 578.5830688476563 C 538.0303955078125 582.487060546875 537.2659301757813 586.2740478515625 535.7582397460938 589.8387451171875 C 534.3018188476563 593.2820434570313 532.216796875 596.3744506835938 529.5610961914063 599.0303344726563 C 526.9052734375 601.68603515625 523.8128051757813 603.7710571289063 520.3695068359375 605.2273559570313 C 516.8048095703125 606.7350463867188 513.017822265625 607.4994506835938 509.1138305664063 607.4994506835938 Z M 862.46826171875 536.1294555664063 L 436.4450988769531 536.1294555664063 C 432.5412292480469 536.1294555664063 428.75439453125 535.3650512695313 425.1898193359375 533.8572998046875 C 421.7465209960938 532.4010620117188 418.6541137695313 530.3160400390625 415.9982299804688 527.6603393554688 C 413.3423767089844 525.0044555664063 411.2573852539063 521.9120483398438 409.8009643554688 518.46875 C 408.2930908203125 514.904052734375 407.5286865234375 511.1170349121094 407.5286865234375 507.2130432128906 C 407.5286865234375 505.1454772949219 407.7479553222656 503.0817565917969 408.1805419921875 501.0788879394531 L 408.3114013671875 500.4733276367188 L 407.6918029785156 500.4733276367188 L 198.4905242919922 500.4733276367188 C 194.5865325927734 500.4733276367188 190.7995300292969 499.7088928222656 187.2346801757813 498.2010498046875 C 183.7912445068359 496.7445983886719 180.6986694335938 494.6596069335938 178.0428161621094 492.0037536621094 C 175.386962890625 489.347900390625 173.3018188476563 486.2554626464844 171.8453826904297 482.8121948242188 C 170.3375244140625 479.2474670410156 169.5731048583984 475.4607543945313 169.5731048583984 471.556884765625 C 169.5731048583984 467.6528930664063 170.3375244140625 463.8659057617188 171.8453826904297 460.3011779785156 C 173.3018188476563 456.85791015625 175.386962890625 453.7653198242188 178.0428161621094 451.109619140625 C 180.6986694335938 448.4538879394531 183.7912445068359 446.3687438964844 187.2346801757813 444.9124755859375 C 190.7993927001953 443.4047546386719 194.5863800048828 442.6403198242188 198.4905242919922 442.6403198242188 L 624.513671875 442.6403198242188 C 628.4175415039063 442.6403198242188 632.2044067382813 443.4047546386719 635.7689819335938 444.9124755859375 C 639.2122192382813 446.3687438964844 642.3046875 448.4538879394531 644.9605102539063 451.109619140625 C 647.6163940429688 453.7653198242188 649.701416015625 456.85791015625 651.1578369140625 460.3011779785156 C 652.6656494140625 463.8659057617188 653.4301147460938 467.6528930664063 653.4301147460938 471.556884765625 C 653.4301147460938 473.6243286132813 653.2108154296875 475.6880493164063 652.7782592773438 477.6908874511719 L 652.6473999023438 478.2964782714844 L 653.2669677734375 478.2964782714844 L 862.46826171875 478.2964782714844 C 866.3722534179688 478.2964782714844 870.1592407226563 479.0609130859375 873.72412109375 480.5687561035156 C 877.1675415039063 482.0251770019531 880.2600708007813 484.1101989746094 882.9159545898438 486.7660522460938 C 885.5718383789063 489.4219055175781 887.656982421875 492.5144653320313 889.1134033203125 495.957763671875 C 890.6212158203125 499.5223388671875 891.3856811523438 503.3091735839844 891.3856811523438 507.2130432128906 C 891.3856811523438 511.1170349121094 890.6212158203125 514.904052734375 889.1134033203125 518.46875 C 887.656982421875 521.9120483398438 885.5718383789063 525.0044555664063 882.9159545898438 527.6603393554688 C 880.2600708007813 530.3160400390625 877.1675415039063 532.4010620117188 873.72412109375 533.8572998046875 C 870.1593627929688 535.3650512695313 866.3723754882813 536.1294555664063 862.46826171875 536.1294555664063 Z M 1023.490844726563 407.7661743164063 L 597.4676513671875 407.7661743164063 C 593.5638427734375 407.7661743164063 589.7769775390625 407.0017700195313 586.21240234375 405.4940490722656 C 582.7691040039063 404.0377502441406 579.6766967773438 401.9526062011719 577.0208129882813 399.2969055175781 C 574.3649291992188 396.6411743164063 572.2799682617188 393.5486145019531 570.8235473632813 390.1053161621094 C 569.315673828125 386.5406188964844 568.55126953125 382.7536010742188 568.55126953125 378.849609375 C 568.55126953125 374.9457702636719 569.315673828125 371.1590270996094 570.8235473632813 367.5943298339844 C 572.2799682617188 364.1510314941406 574.3649291992188 361.0584716796875 577.0208129882813 358.4026184082031 C 579.6766967773438 355.7468872070313 582.7691040039063 353.6617431640625 586.21240234375 352.205322265625 C 589.777099609375 350.6976013183594 593.5638427734375 349.9330444335938 597.4676513671875 349.9330444335938 L 905.1051025390625 349.9330444335938 L 905.1959838867188 349.9330444335938 L 905.2809448242188 349.9011840820313 C 908.062255859375 348.8564758300781 910.4426879882813 347.0151977539063 912.1651000976563 344.5760498046875 C 913.92724609375 342.0807495117188 914.858642578125 339.1459045410156 914.858642578125 336.0887451171875 C 914.858642578125 329.8388671875 910.9509887695313 324.4845886230469 905.4503784179688 322.3409118652344 L 954.6759033203125 322.3409118652344 C 949.1730346679688 324.4941101074219 945.2452392578125 329.8743896484375 945.2452392578125 336.0887451171875 C 945.2452392578125 342.1873168945313 949.1036987304688 347.738037109375 954.8462524414063 349.9009094238281 L 954.9315185546875 349.9330444335938 L 955.0225219726563 349.9330444335938 L 1023.490844726563 349.9330444335938 C 1027.394775390625 349.9330444335938 1031.181762695313 350.6976013183594 1034.74658203125 352.205322265625 C 1038.189819335938 353.6617431640625 1041.282348632813 355.7467651367188 1043.938110351563 358.4026184082031 C 1046.593872070313 361.0584716796875 1048.678955078125 364.1510314941406 1050.13525390625 367.5943298339844 C 1051.642944335938 371.1589050292969 1052.407348632813 374.9457702636719 1052.407348632813 378.849609375 C 1052.407348632813 382.7537536621094 1051.642944335938 386.5406188964844 1050.13525390625 390.1053161621094 C 1048.678955078125 393.5486145019531 1046.593872070313 396.6411743164063 1043.938110351563 399.2969055175781 C 1041.282348632813 401.9526062011719 1038.189819335938 404.0377502441406 1034.74658203125 405.4940490722656 C 1031.181762695313 407.0017700195313 1027.394897460938 407.7661743164063 1023.490844726563 407.7661743164063 Z M 455.4396667480469 407.7661743164063 L 29.41653060913086 407.7661743164063 C 25.51267242431641 407.7661743164063 21.72581481933594 407.0017700195313 18.1612434387207 405.4940490722656 C 14.71795845031738 404.0377502441406 11.62538719177246 401.9526062011719 8.96953010559082 399.2969055175781 C 6.313672542572021 396.6411743164063 4.228672504425049 393.5486145019531 2.772244215011597 390.1053161621094 C 1.264529824256897 386.5406188964844 0.4999584257602692 382.7536010742188 0.4999584257602692 378.849609375 C 0.4999584257602692 374.9457702636719 1.264529824256897 371.1590270996094 2.772244215011597 367.5943298339844 C 4.228672504425049 364.1510314941406 6.313815593719482 361.0584716796875 8.96953010559082 358.4026184082031 C 11.62538719177246 355.7468872070313 14.71795845031738 353.6617431640625 18.1612434387207 352.205322265625 C 21.7259578704834 350.6976013183594 25.51267242431641 349.9330444335938 29.41653060913086 349.9330444335938 L 455.4396667480469 349.9330444335938 C 459.3436584472656 349.9330444335938 463.1306762695313 350.6976013183594 466.6952514648438 352.205322265625 C 470.1385192871094 353.6617431640625 473.2311096191406 355.7467651367188 475.8868103027344 358.4026184082031 C 478.5425415039063 361.0584716796875 480.627685546875 364.1510314941406 482.0839538574219 367.5943298339844 C 483.5916748046875 371.1589050292969 484.3561096191406 374.9457702636719 484.3561096191406 378.849609375 C 484.3561096191406 382.7537536621094 483.5916748046875 386.5406188964844 482.0839538574219 390.1053161621094 C 480.627685546875 393.5486145019531 478.5426635742188 396.6411743164063 475.8868103027344 399.2969055175781 C 473.2311096191406 401.9526062011719 470.138671875 404.0377502441406 466.6952514648438 405.4940490722656 C 463.1306762695313 407.0017700195313 459.3436584472656 407.7661743164063 455.4396667480469 407.7661743164063 Z M 1090.137573242188 321.2994689941406 L 794.7189331054688 321.2994689941406 C 790.7548217773438 321.2994689941406 786.9095458984375 320.523193359375 783.289794921875 318.9923400878906 C 779.7933959960938 317.5134582519531 776.653076171875 315.3963317871094 773.9562377929688 312.6996154785156 C 771.2593994140625 310.0028991699219 769.1422729492188 306.8627624511719 767.6632690429688 303.366455078125 C 766.1322631835938 299.7468872070313 765.35595703125 295.901611328125 765.35595703125 291.9374694824219 C 765.35595703125 284.23876953125 768.3140869140625 276.9626159667969 773.6853637695313 271.4491882324219 C 776.298095703125 268.7674560546875 779.3485107421875 266.6366271972656 782.751953125 265.1157531738281 C 786.2679443359375 263.5446166992188 790.0152587890625 262.6934814453125 793.8895263671875 262.586181640625 L 793.8756713867188 261.5863342285156 L 793.6293334960938 261.5863342285156 C 799.1295776367188 259.4425659179688 803.0372314453125 254.0879211425781 803.0372314453125 247.8384704589844 C 803.0372314453125 241.5884704589844 799.1295166015625 236.2341613769531 793.6289672851563 234.0904693603516 L 842.8545532226563 234.0904693603516 C 837.3516845703125 236.2437133789063 833.423828125 241.6241149902344 833.423828125 247.8384704589844 C 833.423828125 251.64404296875 834.891845703125 255.2668914794922 837.5572509765625 258.0397644042969 C 840.2183837890625 260.8078918457031 843.77197265625 262.4181823730469 847.5635375976563 262.5741882324219 L 847.5737915039063 262.5746154785156 L 847.5841064453125 262.5746154785156 L 1090.137573242188 262.5746154785156 C 1094.101684570313 262.5746154785156 1097.946899414063 263.3508911132813 1101.566650390625 264.8818969726563 C 1105.063110351563 266.3609008789063 1108.203369140625 268.47802734375 1110.900268554688 271.1748962402344 C 1113.596923828125 273.8717651367188 1115.714233398438 277.0120544433594 1117.193237304688 280.5084838867188 C 1118.724243164063 284.1280517578125 1119.50048828125 287.9733276367188 1119.50048828125 291.9374694824219 C 1119.50048828125 295.901611328125 1118.724243164063 299.7468872070313 1117.193237304688 303.366455078125 C 1115.714233398438 306.8627624511719 1113.597045898438 310.0028991699219 1110.900268554688 312.6996154785156 C 1108.203369140625 315.3963317871094 1105.063110351563 317.5134582519531 1101.566650390625 318.9923400878906 C 1097.946899414063 320.523193359375 1094.101684570313 321.2994689941406 1090.137573242188 321.2994689941406 Z M 655.3773803710938 320.4084777832031 L 231.1406707763672 320.4084777832031 C 227.1765289306641 320.4084777832031 223.3312377929688 319.6321716308594 219.711669921875 318.1011962890625 C 216.2152404785156 316.622314453125 213.074951171875 314.5050354003906 210.3780975341797 311.8081970214844 C 207.6812438964844 309.111328125 205.5641021728516 305.97119140625 204.0850982666016 302.4747619628906 C 202.5541076660156 298.8550415039063 201.7778167724609 295.009765625 201.7778167724609 291.0456237792969 C 201.7778167724609 287.0814819335938 202.5541076660156 283.2361755371094 204.0850982666016 279.6166076660156 C 205.5641021728516 276.1203308105469 207.6812438964844 272.9801940917969 210.3780975341797 270.2834777832031 C 213.074951171875 267.5867614746094 216.2152404785156 265.4696044921875 219.711669921875 263.9907531738281 C 223.3312377929688 262.4598999023438 227.1765289306641 261.6836242675781 231.1406707763672 261.6836242675781 L 578.572265625 261.6836242675781 L 578.6736450195313 261.6836242675781 L 578.7669677734375 261.6441955566406 C 584.2469482421875 259.3265991210938 587.787841796875 253.9920349121094 587.787841796875 248.053466796875 C 587.787841796875 241.8035888671875 583.880126953125 236.4492950439453 578.3795776367188 234.3056182861328 L 627.604736328125 234.3056182861328 C 622.1018676757813 236.4588623046875 618.1743774414063 241.839111328125 618.1743774414063 248.053466796875 C 618.1743774414063 250.9907531738281 619.0513916015625 253.8364715576172 620.7108154296875 256.2830505371094 C 622.330078125 258.6704711914063 624.5809326171875 260.5243225097656 627.219970703125 261.6438903808594 L 627.3135375976563 261.6836242675781 L 627.4152221679688 261.6836242675781 L 655.3773803710938 261.6836242675781 C 659.341552734375 261.6836242675781 663.1868286132813 262.4598999023438 666.806396484375 263.9907531738281 C 670.3027954101563 265.4696044921875 673.443115234375 267.5867614746094 676.1399536132813 270.2834777832031 C 678.8367919921875 272.9801940917969 680.9539794921875 276.1203308105469 682.4329833984375 279.6166076660156 C 683.9639282226563 283.2361755371094 684.740234375 287.0814819335938 684.740234375 291.0456237792969 C 684.740234375 295.009765625 683.9639282226563 298.8550415039063 682.4329833984375 302.4747619628906 C 680.9539794921875 305.97119140625 678.8367919921875 309.111328125 676.1399536132813 311.8081970214844 C 673.443115234375 314.5050354003906 670.3027954101563 316.622314453125 666.806396484375 318.1011962890625 C 663.1868286132813 319.6321716308594 659.341552734375 320.4084777832031 655.3773803710938 320.4084777832031 Z M 846.3663940429688 233.050048828125 L 359.5122375488281 233.050048828125 C 355.6083984375 233.050048828125 351.821533203125 232.2856140136719 348.2569580078125 230.7777557373047 C 344.8136596679688 229.3213348388672 341.7210998535156 227.236328125 339.0652465820313 224.5804748535156 C 336.4093933105469 221.9246063232422 334.3244018554688 218.8320465087891 332.8679504394531 215.3887634277344 C 331.360107421875 211.8241882324219 330.5956726074219 208.0373229980469 330.5956726074219 204.1334686279297 C 330.5956726074219 200.2294769287109 331.360107421875 196.4424743652344 332.8679504394531 192.8778991699219 C 334.3244018554688 189.4346160888672 336.4093933105469 186.342041015625 339.0652465820313 183.6863250732422 C 341.7210998535156 181.0306091308594 344.8135375976563 178.9454650878906 348.2569580078125 177.4891815185547 C 351.821533203125 175.9814758300781 355.6083984375 175.217041015625 359.5122375488281 175.217041015625 L 394.3441162109375 175.217041015625 L 394.3538208007813 175.217041015625 L 394.3633728027344 175.2166137695313 C 398.1743774414063 175.0693206787109 401.7378234863281 173.4693298339844 404.3970947265625 170.7114715576172 C 407.0636596679688 167.9463348388672 408.5321044921875 164.3126068115234 408.5321044921875 160.4799041748047 C 408.5321044921875 154.2300109863281 404.6243896484375 148.875732421875 399.1238403320313 146.7320404052734 L 448.3489685058594 146.7320404052734 C 442.8461303710938 148.88525390625 438.9186706542969 154.2654266357422 438.9186706542969 160.4799041748047 C 438.9186706542969 164.2896118164063 440.3893737792969 167.9151916503906 443.059814453125 170.6890411376953 C 445.7261047363281 173.4586181640625 449.2852478027344 175.0664672851563 453.0818176269531 175.2166137695313 L 453.0916748046875 175.217041015625 L 453.1015319824219 175.217041015625 L 846.3663940429688 175.217041015625 C 850.2703857421875 175.217041015625 854.057373046875 175.9814758300781 857.6219482421875 177.4891815185547 C 861.0653686523438 178.9454650878906 864.1578369140625 181.0304718017578 866.8135375976563 183.6863250732422 C 869.4693603515625 186.342041015625 871.5543823242188 189.4344635009766 873.0106811523438 192.8778991699219 C 874.5183715820313 196.4424743652344 875.2828369140625 200.2294769287109 875.2828369140625 204.1334686279297 C 875.2828369140625 208.0373229980469 874.5183715820313 211.8241882324219 873.0106811523438 215.3887634277344 C 871.5543823242188 218.8321838378906 869.46923828125 221.9246063232422 866.8135375976563 224.5804748535156 C 864.1578369140625 227.236328125 861.0652465820313 229.3213348388672 857.6219482421875 230.7777557373047 C 854.057373046875 232.2856140136719 850.2703857421875 233.050048828125 846.3663940429688 233.050048828125 Z M 550.2645263671875 145.6914672851563 L 124.2405319213867 145.6914672851563 C 120.336669921875 145.6914672851563 116.5499572753906 144.9270477294922 112.9852447509766 143.419189453125 C 109.5419616699219 141.9627532958984 106.4493865966797 139.8777618408203 103.7935333251953 137.2218933105469 C 101.1378173828125 134.5660400390625 99.05267333984375 131.4736175537109 97.59624481201172 128.0303344726563 C 96.08853149414063 124.4656143188477 95.32395935058594 120.6789016723633 95.32395935058594 116.7750396728516 C 95.32395935058594 112.8710403442383 96.08853149414063 109.0840377807617 97.59624481201172 105.5193252563477 C 99.05267333984375 102.076042175293 101.1376724243164 98.98346710205078 103.7935333251953 96.3277587890625 C 106.4493865966797 93.67204284667969 109.5419616699219 91.58689880371094 112.9852447509766 90.130615234375 C 116.5498123168945 88.62290191650391 120.336669921875 87.85846710205078 124.2405319213867 87.85846710205078 L 550.2645263671875 87.85846710205078 C 554.1683959960938 87.85846710205078 557.9552612304688 88.62290191650391 561.5198364257813 90.130615234375 C 564.9630737304688 91.58689880371094 568.0556640625 93.67204284667969 570.7115478515625 96.3277587890625 C 573.3673706054688 98.98346710205078 575.452392578125 102.076042175293 576.9088134765625 105.5193252563477 C 578.41650390625 109.0840377807617 579.1810913085938 112.8710403442383 579.1810913085938 116.7750396728516 C 579.1810913085938 120.6789016723633 578.41650390625 124.4656143188477 576.9088134765625 128.0303344726563 C 575.452392578125 131.4736175537109 573.3672485351563 134.5660400390625 570.7115478515625 137.2218933105469 C 568.0556640625 139.8777618408203 564.9630737304688 141.9627532958984 561.5198364257813 143.419189453125 C 557.955078125 144.9270477294922 554.1683959960938 145.6914672851563 550.2645263671875 145.6914672851563 Z M 478.3442687988281 86.65418243408203 L 429.1169738769531 86.65418243408203 C 434.6171875 84.51046752929688 438.524658203125 79.15589141845703 438.524658203125 72.90632629394531 C 438.524658203125 69.37732696533203 437.2533874511719 65.96018218994141 434.9450988769531 63.28446960449219 C 432.6611022949219 60.63704299926758 429.5151062011719 58.88075637817383 426.0863952636719 58.33918380737305 L 426.0476684570313 58.33304214477539 L 426.0083923339844 58.33304214477539 L 359.5122375488281 58.33304214477539 C 355.6083984375 58.33304214477539 351.821533203125 57.56861114501953 348.2569580078125 56.06089782714844 C 344.8135375976563 54.6046142578125 341.7210998535156 52.51947021484375 339.0652465820313 49.86375427246094 C 336.4093933105469 47.20804214477539 334.3244018554688 44.11547088623047 332.8679504394531 40.67218399047852 C 331.360107421875 37.10747146606445 330.5956726074219 33.32046890258789 330.5956726074219 29.41646957397461 C 330.5956726074219 25.51261329650879 331.360107421875 21.72589874267578 332.8679504394531 18.16118431091309 C 334.3244018554688 14.71789836883545 336.4093933105469 11.62547016143799 339.0652465820313 8.969613075256348 C 341.7210998535156 6.313755989074707 344.8136596679688 4.228755950927734 348.2569580078125 2.772327184677124 C 351.821533203125 1.264470100402832 355.6083984375 0.5000415444374084 359.5122375488281 0.5000415444374084 L 675.5040893554688 0.5000415444374084 C 679.407958984375 0.5000415444374084 683.1947021484375 1.264470100402832 686.7593994140625 2.772327184677124 C 690.2026977539063 4.228755950927734 693.2951049804688 6.313755989074707 695.9509887695313 8.969613075256348 C 698.6068115234375 11.62547016143799 700.6918334960938 14.71789836883545 702.1482543945313 18.16118431091309 C 703.6561279296875 21.72589874267578 704.4205322265625 25.51261329650879 704.4205322265625 29.41646957397461 C 704.4205322265625 33.32046890258789 703.6561279296875 37.10747146606445 702.1482543945313 40.67218399047852 C 700.6918334960938 44.11547088623047 698.6068115234375 47.20804214477539 695.9509887695313 49.86375427246094 C 693.2951049804688 52.51947021484375 690.2026977539063 54.6046142578125 686.7593994140625 56.06089782714844 C 683.19482421875 57.56861114501953 679.407958984375 58.33304214477539 675.5040893554688 58.33304214477539 L 481.428955078125 58.33304214477539 L 481.3892517089844 58.33304214477539 L 481.35009765625 58.33932876586914 C 477.9310913085938 58.88561248779297 474.787109375 60.64932632446289 472.4972534179688 63.30575561523438 C 470.184814453125 65.98818206787109 468.9112548828125 69.39775848388672 468.9112548828125 72.90632629394531 C 468.9112548828125 79.12025451660156 472.8405456542969 84.50193786621094 478.3442687988281 86.65418243408203 Z" stroke="none"/><path d="M 509.1138305664063 606.9994506835938 C 512.9505004882813 606.9994506835938 516.6719360351563 606.2483520507813 520.1746826171875 604.7669067382813 C 523.5584106445313 603.3357543945313 526.5975341796875 601.2867431640625 529.20751953125 598.6767578125 C 531.8175048828125 596.0667724609375 533.8665161132813 593.027587890625 535.2976684570313 589.6439208984375 C 536.7792358398438 586.141357421875 537.5303955078125 582.419921875 537.5303955078125 578.5830688476563 C 537.5303955078125 578.2154541015625 537.5230712890625 577.8407592773438 537.5087890625 577.469482421875 L 537.4688110351563 576.4310302734375 L 538.5081176757813 576.4310302734375 L 561.1297607421875 576.4310302734375 C 556.5206298828125 573.7926025390625 553.39453125 568.8190307617188 553.39453125 563.1831665039063 C 553.39453125 557.546875 556.519775390625 552.5740356445313 561.1279296875 549.9351806640625 L 511.9600524902344 549.9351806640625 L 511.8998107910156 550.3013305664063 C 510.9799499511719 550.2119140625 510.0426635742188 550.1664428710938 509.1138305664063 550.1664428710938 L 304.048828125 550.1664428710938 C 300.2122497558594 550.1664428710938 296.490966796875 550.9176025390625 292.9882507324219 552.399169921875 C 289.6046752929688 553.8304443359375 286.5655212402344 555.8794555664063 283.9553833007813 558.4896240234375 C 281.3453979492188 561.0997314453125 279.2962341308594 564.1387329101563 277.8649597167969 567.5224609375 C 276.3833923339844 571.0252075195313 275.6322326660156 574.7464599609375 275.6322326660156 578.5830688476563 C 275.6322326660156 582.4197387695313 276.3833923339844 586.1411743164063 277.8649597167969 589.6439208984375 C 279.2962341308594 593.027587890625 281.3453979492188 596.0667724609375 283.9553833007813 598.6767578125 C 286.5655212402344 601.2867431640625 289.6045227050781 603.3357543945313 292.9882507324219 604.7669067382813 C 296.490966796875 606.2483520507813 300.2122497558594 606.9994506835938 304.048828125 606.9994506835938 L 509.1138305664063 606.9994506835938 M 862.46826171875 535.6294555664063 C 866.3051147460938 535.6294555664063 870.0265502929688 534.8783569335938 873.5293579101563 533.3969116210938 C 876.9130859375 531.9657592773438 879.952392578125 529.916748046875 882.5623779296875 527.3067626953125 C 885.1725463867188 524.69677734375 887.2216796875 521.6575927734375 888.6529541015625 518.27392578125 C 890.134521484375 514.7711791992188 890.8856811523438 511.0497436523438 890.8856811523438 507.2130432128906 C 890.8856811523438 503.37646484375 890.134521484375 499.6551818847656 888.6529541015625 496.1524658203125 C 887.2216796875 492.7687683105469 885.1725463867188 489.7297668457031 882.5623779296875 487.1195983886719 C 879.9522705078125 484.5094604492188 876.9130859375 482.4604797363281 873.5292358398438 481.0291748046875 C 870.0265502929688 479.547607421875 866.304931640625 478.7964782714844 862.46826171875 478.7964782714844 L 653.2669677734375 478.7964782714844 L 652.0279541015625 478.7964782714844 L 652.28955078125 477.5853271484375 C 652.7145385742188 475.6171875 652.9301147460938 473.5888977050781 652.9301147460938 471.556884765625 C 652.9301147460938 467.7201843261719 652.178955078125 463.9987487792969 650.6973876953125 460.4960327148438 C 649.26611328125 457.1123352050781 647.2171020507813 454.0731811523438 644.60693359375 451.4631958007813 C 641.9969482421875 448.8531799316406 638.9578247070313 446.80419921875 635.5740966796875 445.3728942871094 C 632.071533203125 443.8914794921875 628.3502197265625 443.1403198242188 624.513671875 443.1403198242188 L 198.4905242919922 443.1403198242188 C 194.6536712646484 443.1403198242188 190.9322509765625 443.8914794921875 187.4293823242188 445.3728942871094 C 184.0456695556641 446.80419921875 181.0063934326172 448.8531799316406 178.3963928222656 451.4631958007813 C 175.7862396240234 454.0731811523438 173.7371063232422 457.1123352050781 172.3058166503906 460.4960327148438 C 170.8242492675781 463.9987487792969 170.0731048583984 467.7201843261719 170.0731048583984 471.556884765625 C 170.0731048583984 475.3934631347656 170.8242492675781 479.11474609375 172.3058166503906 482.6173400878906 C 173.7371063232422 486.0010375976563 175.7862396240234 489.0401916503906 178.3963928222656 491.6501770019531 C 181.0065307617188 494.2603149414063 184.0456695556641 496.309326171875 187.4295349121094 497.7406005859375 C 190.9322509765625 499.2221984863281 194.65380859375 499.9733276367188 198.4905242919922 499.9733276367188 L 407.6918029785156 499.9733276367188 L 408.9308166503906 499.9733276367188 L 408.6692504882813 501.1844787597656 C 408.2442321777344 503.1526184082031 408.0286865234375 505.180908203125 408.0286865234375 507.2130432128906 C 408.0286865234375 511.0497436523438 408.7798156738281 514.7711791992188 410.2613830566406 518.27392578125 C 411.6926574707031 521.6575927734375 413.7416687011719 524.69677734375 416.351806640625 527.3067626953125 C 418.9618225097656 529.916748046875 422.0009460449219 531.9657592773438 425.3846740722656 533.3969116210938 C 428.8872375488281 534.8783569335938 432.6085205078125 535.6294555664063 436.4450988769531 535.6294555664063 L 862.46826171875 535.6294555664063 M 1023.490844726563 407.2661743164063 C 1027.32763671875 407.2661743164063 1031.049072265625 406.5150451660156 1034.5517578125 405.0335998535156 C 1037.935546875 403.6024780273438 1040.974487304688 401.5533142089844 1043.58447265625 398.9433288574219 C 1046.194580078125 396.3333129882813 1048.24365234375 393.2943420410156 1049.6748046875 389.9106140136719 C 1051.15625 386.4078979492188 1051.907348632813 382.6864624023438 1051.907348632813 378.849609375 C 1051.907348632813 375.0130310058594 1051.15625 371.291748046875 1049.6748046875 367.7890319824219 C 1048.243530273438 364.4053344726563 1046.194580078125 361.3663330078125 1043.58447265625 358.7561950683594 C 1040.974487304688 356.1461791992188 1037.935424804688 354.0970458984375 1034.551635742188 352.6657409667969 C 1031.048950195313 351.1841735839844 1027.327514648438 350.4330444335938 1023.490844726563 350.4330444335938 L 955.0225219726563 350.4330444335938 L 954.8403930664063 350.4330444335938 L 954.6701049804688 350.368896484375 C 948.733642578125 348.1329040527344 944.7452392578125 342.3941955566406 944.7452392578125 336.0887451171875 C 944.7452392578125 330.4525451660156 947.8704833984375 325.4797668457031 952.4785766601563 322.8409118652344 L 907.6542358398438 322.8409118652344 C 912.2525634765625 325.4696350097656 915.358642578125 330.4234008789063 915.358642578125 336.0887451171875 C 915.358642578125 339.249755859375 914.3956909179688 342.2843322753906 912.5735473632813 344.8644714355469 C 910.7930908203125 347.3857421875 908.3320922851563 349.2891845703125 905.4566650390625 350.3691711425781 L 905.2866821289063 350.4330444335938 L 905.1051025390625 350.4330444335938 L 597.4676513671875 350.4330444335938 C 593.631103515625 350.4330444335938 589.9097900390625 351.1841735839844 586.4072265625 352.6657409667969 C 583.0235595703125 354.0970458984375 579.984375 356.1461791992188 577.3743896484375 358.7561950683594 C 574.7642211914063 361.3663330078125 572.7152709960938 364.4054565429688 571.283935546875 367.7890319824219 C 569.8023681640625 371.291748046875 569.05126953125 375.0130310058594 569.05126953125 378.849609375 C 569.05126953125 382.6863403320313 569.8023681640625 386.4077453613281 571.283935546875 389.9104614257813 C 572.7152709960938 393.294189453125 574.7642211914063 396.3333129882813 577.3743896484375 398.9433288574219 C 579.984375 401.5533142089844 583.0235595703125 403.6023254394531 586.4072265625 405.0335998535156 C 589.9097900390625 406.5150451660156 593.631103515625 407.2661743164063 597.4676513671875 407.2661743164063 L 1023.490844726563 407.2661743164063 M 455.4396667480469 407.2661743164063 C 459.2763977050781 407.2661743164063 462.997802734375 406.5150451660156 466.5005187988281 405.0335998535156 C 469.8842468261719 403.6024780273438 472.9232482910156 401.5533142089844 475.5332336425781 398.9433288574219 C 478.1432495117188 396.3333129882813 480.1923828125 393.2943420410156 481.62353515625 389.9106140136719 C 483.1049499511719 386.4078979492188 483.8561096191406 382.6864624023438 483.8561096191406 378.849609375 C 483.8561096191406 375.0130310058594 483.1049499511719 371.291748046875 481.62353515625 367.7890319824219 C 480.1923828125 364.4053344726563 478.1432495117188 361.3663330078125 475.5332336425781 358.7561950683594 C 472.9232482910156 356.1461791992188 469.8842468261719 354.0970458984375 466.5005187988281 352.6657409667969 C 462.997802734375 351.1841735839844 459.2763977050781 350.4330444335938 455.4396667480469 350.4330444335938 L 29.41653060913086 350.4330444335938 C 25.57995796203613 350.4330444335938 21.85867309570313 351.1841735839844 18.35610198974609 352.6657409667969 C 14.97238731384277 354.0970458984375 11.93324375152588 356.1461791992188 9.323101043701172 358.7561950683594 C 6.713101387023926 361.3663330078125 4.663958549499512 364.4054565429688 3.232672691345215 367.7891845703125 C 1.75110125541687 371.291748046875 0.9999584555625916 375.0130310058594 0.9999584555625916 378.849609375 C 0.9999584555625916 382.6863403320313 1.75110125541687 386.4077453613281 3.232672691345215 389.9104614257813 C 4.663958549499512 393.294189453125 6.713101387023926 396.3333129882813 9.323101043701172 398.9433288574219 C 11.93324375152588 401.5533142089844 14.97224426269531 403.6023254394531 18.35595893859863 405.0335998535156 C 21.85867309570313 406.5150451660156 25.57995796203613 407.2661743164063 29.41653060913086 407.2661743164063 L 455.4396667480469 407.2661743164063 M 1090.137573242188 320.7994689941406 C 1094.034423828125 320.7994689941406 1097.814208984375 320.0364685058594 1101.371948242188 318.5317687988281 C 1104.808837890625 317.0781860351563 1107.8955078125 314.9970397949219 1110.546630859375 312.3460388183594 C 1113.197631835938 309.6950378417969 1115.278930664063 306.6083374023438 1116.732666015625 303.1716003417969 C 1118.237548828125 299.6140441894531 1119.00048828125 295.8343200683594 1119.00048828125 291.9374694824219 C 1119.00048828125 288.0406188964844 1118.237548828125 284.2608947753906 1116.732666015625 280.7031860351563 C 1115.278930664063 277.2663269042969 1113.197631835938 274.1796264648438 1110.546630859375 271.5284729003906 C 1107.8955078125 268.8774719238281 1104.808715820313 266.7961730957031 1101.371826171875 265.3424682617188 C 1097.814086914063 263.8376159667969 1094.034423828125 263.0746154785156 1090.137573242188 263.0746154785156 L 847.5841064453125 263.0746154785156 L 847.5635375976563 263.0746154785156 L 847.54296875 263.0737609863281 C 843.6219482421875 262.9124755859375 839.9476928710938 261.2477416992188 837.1968383789063 258.3861694335938 C 834.44140625 255.5198974609375 832.923828125 251.7738952636719 832.923828125 247.8384704589844 C 832.923828125 242.2021636962891 836.049072265625 237.2293395996094 840.6571655273438 234.5904693603516 L 795.8328247070313 234.5904693603516 C 800.43115234375 237.21923828125 803.5372314453125 242.1731109619141 803.5372314453125 247.8384704589844 C 803.5372314453125 254.2699890136719 799.5339965820313 259.7849731445313 793.8886108398438 262.0216369628906 L 793.9033813476563 263.0859069824219 C 790.094970703125 263.1914672851563 786.4116821289063 264.0280456542969 782.9559326171875 265.5721740722656 C 779.6105346679688 267.0671691894531 776.6119384765625 269.1618957519531 774.0435180664063 271.7981872558594 C 768.763671875 277.2176208496094 765.85595703125 284.3699035644531 765.85595703125 291.9374694824219 C 765.85595703125 295.8343200683594 766.6189575195313 299.6140441894531 768.1238403320313 303.1716003417969 C 769.5775146484375 306.6083374023438 771.6588134765625 309.6950378417969 774.309814453125 312.3460388183594 C 776.9609375 314.9970397949219 780.0476684570313 317.0781860351563 783.4845581054688 318.5317687988281 C 787.042236328125 320.0364685058594 790.8220825195313 320.7994689941406 794.7189331054688 320.7994689941406 L 1090.137573242188 320.7994689941406 M 655.3773803710938 319.9084777832031 C 659.2742309570313 319.9084777832031 663.053955078125 319.1454772949219 666.6116943359375 317.640625 C 670.0485229492188 316.1870422363281 673.13525390625 314.1057434082031 675.786376953125 311.4546203613281 C 678.4373779296875 308.8036193847656 680.5186767578125 305.7167663574219 681.972412109375 302.2799072265625 C 683.4772338867188 298.7221984863281 684.240234375 294.9424743652344 684.240234375 291.0456237792969 C 684.240234375 287.1487426757813 683.4772338867188 283.3690490722656 681.972412109375 279.8114624023438 C 680.5186767578125 276.374755859375 678.4373779296875 273.2880554199219 675.786376953125 270.6370544433594 C 673.1353759765625 267.9860534667969 670.0485229492188 265.9049072265625 666.6116943359375 264.4513244628906 C 663.053955078125 262.9466247558594 659.2742309570313 262.1836242675781 655.3773803710938 262.1836242675781 L 627.4152221679688 262.1836242675781 L 627.2119750976563 262.1836242675781 L 627.024658203125 262.1041870117188 C 624.2968139648438 260.9468994140625 621.9703979492188 259.0310363769531 620.2969360351563 256.5635986328125 C 618.5812377929688 254.0340423583984 617.6743774414063 251.0911865234375 617.6743774414063 248.053466796875 C 617.6743774414063 242.4172515869141 620.7996215820313 237.4444732666016 625.40771484375 234.8056182861328 L 580.58349609375 234.8056182861328 C 585.1817626953125 237.4343414306641 588.287841796875 242.3881225585938 588.287841796875 248.053466796875 C 588.287841796875 254.1933288574219 584.6270751953125 259.7087707519531 578.9617919921875 262.1046142578125 L 578.7749633789063 262.1836242675781 L 578.572265625 262.1836242675781 L 231.1406707763672 262.1836242675781 C 227.2438201904297 262.1836242675781 223.4640960693359 262.9466247558594 219.9063873291016 264.4513244628906 C 216.4695281982422 265.9049072265625 213.3826751708984 267.9860534667969 210.7316741943359 270.6370544433594 C 208.0806732177734 273.2880554199219 205.9993896484375 276.374755859375 204.5456695556641 279.8114624023438 C 203.0408172607422 283.3690490722656 202.2778167724609 287.1487426757813 202.2778167724609 291.0456237792969 C 202.2778167724609 294.9424743652344 203.0408172607422 298.7221984863281 204.5456695556641 302.2799072265625 C 205.9993896484375 305.7167663574219 208.0806732177734 308.8036193847656 210.7316741943359 311.4546203613281 C 213.3828125 314.1057434082031 216.4695281982422 316.1870422363281 219.9063873291016 317.640625 C 223.4640960693359 319.1454772949219 227.2438201904297 319.9084777832031 231.1406707763672 319.9084777832031 L 655.3773803710938 319.9084777832031 M 846.3663940429688 232.550048828125 C 850.203125 232.550048828125 853.9244995117188 231.7989044189453 857.42724609375 230.3173217773438 C 860.8109741210938 228.8860473632813 863.8499755859375 226.8370361328125 866.4599609375 224.2268981933594 C 869.0699462890625 221.6168975830078 871.1190795898438 218.5777587890625 872.5502319335938 215.1940460205078 C 874.0316772460938 211.6913299560547 874.7828369140625 207.9700469970703 874.7828369140625 204.1334686279297 C 874.7828369140625 200.2967529296875 874.0316772460938 196.5753326416016 872.5502319335938 193.0726165771484 C 871.1190795898438 189.6889038085938 869.0699462890625 186.64990234375 866.4599609375 184.0399017333984 C 863.8499755859375 181.4299011230469 860.8109741210938 179.3807525634766 857.42724609375 177.9496154785156 C 853.9244995117188 176.4681854248047 850.203125 175.717041015625 846.3663940429688 175.717041015625 L 453.1015319824219 175.717041015625 L 453.0818176269531 175.717041015625 L 453.0619506835938 175.7163238525391 C 449.1359558105469 175.5608978271484 445.455810546875 173.8987579345703 442.6996765136719 171.0359039306641 C 439.93896484375 168.1683197021484 438.4186706542969 164.4194641113281 438.4186706542969 160.4799041748047 C 438.4186706542969 154.8435821533203 441.5437622070313 149.8708648681641 446.15185546875 147.2320404052734 L 401.3277587890625 147.2320404052734 C 405.9260864257813 149.8607635498047 409.0321044921875 154.8145446777344 409.0321044921875 160.4799041748047 C 409.0321044921875 164.4427490234375 407.5138244628906 168.1996154785156 404.7571105957031 171.0586090087891 C 402.0076599121094 173.9097595214844 398.3233947753906 175.5639038085938 394.3828125 175.7163238525391 L 394.3633728027344 175.717041015625 L 394.3441162109375 175.717041015625 L 359.5122375488281 175.717041015625 C 355.6756591796875 175.717041015625 351.9543762207031 176.4681854248047 348.45166015625 177.9496154785156 C 345.0679626464844 179.3807525634766 342.02880859375 181.4299011230469 339.4188232421875 184.0399017333984 C 336.8086853027344 186.64990234375 334.7596740722656 189.6889038085938 333.3283996582031 193.0726165771484 C 331.8468017578125 196.5753326416016 331.0956726074219 200.2967529296875 331.0956726074219 204.1334686279297 C 331.0956726074219 207.9700469970703 331.8468017578125 211.6913299560547 333.3283996582031 215.1940460205078 C 334.7596740722656 218.5777587890625 336.8086853027344 221.6167602539063 339.4188232421875 224.2268981933594 C 342.0289611816406 226.8370361328125 345.0679626464844 228.8860473632813 348.45166015625 230.3173217773438 C 351.9543762207031 231.7989044189453 355.6756591796875 232.550048828125 359.5122375488281 232.550048828125 L 846.3663940429688 232.550048828125 M 550.2645263671875 145.1914672851563 C 554.10107421875 145.1914672851563 557.8223876953125 144.4403228759766 561.3250732421875 142.9587554931641 C 564.7086791992188 141.5274658203125 567.747802734375 139.4784698486328 570.3579711914063 136.8683319091797 C 572.9679565429688 134.2583312988281 575.01708984375 131.2191772460938 576.4483642578125 127.8354721069336 C 577.929931640625 124.3329010009766 578.6810913085938 120.6116104125977 578.6810913085938 116.7750396728516 C 578.6810913085938 112.9383239746094 577.929931640625 109.2168960571289 576.4483642578125 105.7141876220703 C 575.01708984375 102.3304672241211 572.9679565429688 99.29132843017578 570.3579711914063 96.68132781982422 C 567.747802734375 94.07132720947266 564.7088012695313 92.02232360839844 561.3250732421875 90.59104156494141 C 557.8223876953125 89.10961151123047 554.10107421875 88.35846710205078 550.2645263671875 88.35846710205078 L 124.2405319213867 88.35846710205078 C 120.4039611816406 88.35846710205078 116.6826705932617 89.10961151123047 113.1799621582031 90.59104156494141 C 109.7962417602539 92.02232360839844 106.7572479248047 94.07132720947266 104.147102355957 96.68132781982422 C 101.5371017456055 99.29132843017578 99.48796081542969 102.3304672241211 98.05667114257813 105.7141876220703 C 96.57510375976563 109.2168960571289 95.82395935058594 112.9383239746094 95.82395935058594 116.7750396728516 C 95.82395935058594 120.6116104125977 96.57510375976563 124.3329010009766 98.05667114257813 127.8354721069336 C 99.48796081542969 131.2191772460938 101.5371017456055 134.2583312988281 104.147102355957 136.8683319091797 C 106.7572479248047 139.4784698486328 109.79638671875 141.5274658203125 113.1799621582031 142.9587554931641 C 116.6826705932617 144.4403228759766 120.4039611816406 145.1914672851563 124.2405319213867 145.1914672851563 L 550.2645263671875 145.1914672851563 M 476.1462097167969 86.15418243408203 C 471.5371704101563 83.51570892333984 468.4112548828125 78.54217529296875 468.4112548828125 72.90632629394531 C 468.4112548828125 69.27803802490234 469.7278137207031 65.75247192382813 472.1185302734375 62.97918319702148 C 474.4852294921875 60.23361206054688 477.7358093261719 58.41046905517578 481.271240234375 57.84561157226563 L 481.3495178222656 57.83304214477539 L 481.428955078125 57.83304214477539 L 675.5040893554688 57.83304214477539 C 679.3406982421875 57.83304214477539 683.0619506835938 57.0818977355957 686.5645141601563 55.60047149658203 C 689.9482421875 54.16918563842773 692.9873657226563 52.12018585205078 695.597412109375 49.51018524169922 C 698.20751953125 46.90018463134766 700.2565307617188 43.86104202270508 701.6878051757813 40.47732543945313 C 703.1693725585938 36.97461318969727 703.9205322265625 33.2531852722168 703.9205322265625 29.41646957397461 C 703.9205322265625 25.57989883422852 703.1693725585938 21.85861206054688 701.6878051757813 18.35604095458984 C 700.2565307617188 14.97232723236084 698.20751953125 11.93318462371826 695.597412109375 9.323184013366699 C 692.9873657226563 6.71304178237915 689.9482421875 4.664041519165039 686.5645141601563 3.232755899429321 C 683.0619506835938 1.751184463500977 679.3406982421875 1.000041604042053 675.5040893554688 1.000041604042053 L 359.5122375488281 1.000041604042053 C 355.6756591796875 1.000041604042053 351.9543762207031 1.751184463500977 348.45166015625 3.232755899429321 C 345.0679626464844 4.664041519165039 342.0289611816406 6.71304178237915 339.4188232421875 9.323184013366699 C 336.8086853027344 11.93318462371826 334.7596740722656 14.97232723236084 333.3283996582031 18.35604095458984 C 331.8468017578125 21.85861206054688 331.0956726074219 25.57989883422852 331.0956726074219 29.41646957397461 C 331.0956726074219 33.2531852722168 331.8468017578125 36.97461318969727 333.3283996582031 40.47732543945313 C 334.7596740722656 43.86104202270508 336.8086853027344 46.90018463134766 339.4188232421875 49.51018524169922 C 342.02880859375 52.12018585205078 345.0679626464844 54.16918563842773 348.45166015625 55.60047149658203 C 351.9543762207031 57.0818977355957 355.6756591796875 57.83304214477539 359.5122375488281 57.83304214477539 L 426.0083923339844 57.83304214477539 L 426.0868225097656 57.83304214477539 L 426.1643981933594 57.8453254699707 C 429.7098083496094 58.40532684326172 432.9625244140625 60.22104263305664 435.3236694335938 62.9578971862793 C 437.7102355957031 65.72432708740234 439.024658203125 69.25746917724609 439.024658203125 72.90632629394531 C 439.024658203125 78.57145690917969 435.9187927246094 83.52538299560547 431.3205261230469 86.15418243408203 L 476.1462097167969 86.15418243408203 M 509.1138305664063 607.9994506835938 L 304.048828125 607.9994506835938 C 287.8029479980469 607.9994506835938 274.6322326660156 594.8298950195313 274.6322326660156 578.5830688476563 C 274.6322326660156 562.3370361328125 287.8029479980469 549.1664428710938 304.048828125 549.1664428710938 L 509.1138305664063 549.1664428710938 C 510.086669921875 549.1664428710938 511.048095703125 549.2137451171875 511.9966735839844 549.3060302734375 C 510.95654296875 549.0634765625 509.8731079101563 548.9351806640625 508.7601013183594 548.9351806640625 L 568.4022216796875 548.9351806640625 C 560.6784057617188 549.0657348632813 554.39453125 555.4566040039063 554.39453125 563.1831665039063 C 554.39453125 570.9033203125 560.673095703125 577.294189453125 568.3905029296875 577.42919921875 L 568.3905029296875 577.4310302734375 L 538.5081176757813 577.4310302734375 C 538.5228271484375 577.8131713867188 538.5303955078125 578.1973266601563 538.5303955078125 578.5830688476563 C 538.5303955078125 594.8298950195313 525.3605346679688 607.9994506835938 509.1138305664063 607.9994506835938 Z M 862.46826171875 536.6294555664063 L 436.4450988769531 536.6294555664063 C 420.1992492675781 536.6294555664063 407.0286865234375 523.4598999023438 407.0286865234375 507.2130432128906 C 407.0286865234375 505.0721740722656 407.2575378417969 502.9841918945313 407.6918029785156 500.9733276367188 L 198.4905242919922 500.9733276367188 C 182.2436676025391 500.9733276367188 169.0731048583984 487.8027648925781 169.0731048583984 471.556884765625 C 169.0731048583984 455.3100280761719 182.2436676025391 442.1403198242188 198.4905242919922 442.1403198242188 L 624.513671875 442.1403198242188 C 640.759521484375 442.1403198242188 653.9301147460938 455.3100280761719 653.9301147460938 471.556884765625 C 653.9301147460938 473.6976013183594 653.7012329101563 475.7856140136719 653.2669677734375 477.7964782714844 L 862.46826171875 477.7964782714844 C 878.715087890625 477.7964782714844 891.8856811523438 490.967041015625 891.8856811523438 507.2130432128906 C 891.8856811523438 523.4598999023438 878.715087890625 536.6294555664063 862.46826171875 536.6294555664063 Z M 1023.490844726563 408.2661743164063 L 597.4676513671875 408.2661743164063 C 581.2218017578125 408.2661743164063 568.05126953125 395.0964660644531 568.05126953125 378.849609375 C 568.05126953125 362.603759765625 581.2218017578125 349.4330444335938 597.4676513671875 349.4330444335938 L 905.1051025390625 349.4330444335938 C 910.5046997070313 347.405029296875 914.358642578125 342.1880493164063 914.358642578125 336.0887451171875 C 914.358642578125 328.2317504882813 907.966796875 321.8409118652344 900.1106567382813 321.8409118652344 L 959.7528076171875 321.8409118652344 C 952.0291137695313 321.9714660644531 945.7452392578125 328.3614807128906 945.7452392578125 336.0887451171875 C 945.7452392578125 342.1536254882813 949.6192626953125 347.3978881835938 955.0225219726563 349.4330444335938 L 1023.490844726563 349.4330444335938 C 1039.737670898438 349.4330444335938 1052.907348632813 362.603759765625 1052.907348632813 378.849609375 C 1052.907348632813 395.0964660644531 1039.737670898438 408.2661743164063 1023.490844726563 408.2661743164063 Z M 455.4396667480469 408.2661743164063 L 29.41653060913086 408.2661743164063 C 13.17067241668701 408.2661743164063 -4.157366129220463e-05 395.0964660644531 -4.157366129220463e-05 378.849609375 C -4.157366129220463e-05 362.603759765625 13.17067241668701 349.4330444335938 29.41653060913086 349.4330444335938 L 455.4396667480469 349.4330444335938 C 471.6864013671875 349.4330444335938 484.8561096191406 362.603759765625 484.8561096191406 378.849609375 C 484.8561096191406 395.0964660644531 471.6864013671875 408.2661743164063 455.4396667480469 408.2661743164063 Z M 1090.137573242188 321.7994689941406 L 794.7189331054688 321.7994689941406 C 778.2263793945313 321.7994689941406 764.85595703125 308.4300537109375 764.85595703125 291.9374694824219 C 764.85595703125 275.7268981933594 777.77294921875 262.5326232910156 793.8756713867188 262.0863342285156 L 788.2938232421875 262.0863342285156 C 796.1480712890625 262.08447265625 802.5372314453125 255.6936187744141 802.5372314453125 247.8384704589844 C 802.5372314453125 239.9823303222656 796.1453857421875 233.5904693603516 788.2893676757813 233.5904693603516 L 847.931396484375 233.5904693603516 C 840.2077026367188 233.7210388183594 833.923828125 240.1118927001953 833.923828125 247.8384704589844 C 833.923828125 255.4473266601563 840.0208129882813 261.7634582519531 847.5841064453125 262.0746154785156 L 1090.137573242188 262.0746154785156 C 1106.630126953125 262.0746154785156 1120.00048828125 275.4450378417969 1120.00048828125 291.9374694824219 C 1120.00048828125 308.4300537109375 1106.630126953125 321.7994689941406 1090.137573242188 321.7994689941406 Z M 655.3773803710938 320.9084777832031 L 231.1406707763672 320.9084777832031 C 214.6482391357422 320.9084777832031 201.2778167724609 307.5381774902344 201.2778167724609 291.0456237792969 C 201.2778167724609 274.5530395507813 214.6482391357422 261.1836242675781 231.1406707763672 261.1836242675781 L 578.572265625 261.1836242675781 C 583.6885375976563 259.0198974609375 587.287841796875 253.9491882324219 587.287841796875 248.053466796875 C 587.287841796875 240.1974639892578 580.8959350585938 233.8056182861328 573.0399780273438 233.8056182861328 L 632.6819458007813 233.8056182861328 C 624.9573974609375 233.9361877441406 618.6743774414063 240.3270416259766 618.6743774414063 248.053466796875 C 618.6743774414063 253.9160461425781 622.2945556640625 259.0111694335938 627.4152221679688 261.1836242675781 L 655.3773803710938 261.1836242675781 C 671.8698120117188 261.1836242675781 685.240234375 274.5530395507813 685.240234375 291.0456237792969 C 685.240234375 307.5381774902344 671.8698120117188 320.9084777832031 655.3773803710938 320.9084777832031 Z M 846.3663940429688 233.550048828125 L 359.5122375488281 233.550048828125 C 343.2662353515625 233.550048828125 330.0956726074219 220.3794708251953 330.0956726074219 204.1334686279297 C 330.0956726074219 187.8867492675781 343.2662353515625 174.717041015625 359.5122375488281 174.717041015625 L 394.3441162109375 174.717041015625 C 401.9418029785156 174.4231872558594 408.0321044921875 168.1496124267578 408.0321044921875 160.4799041748047 C 408.0321044921875 152.6237487792969 401.640380859375 146.2320404052734 393.7842407226563 146.2320404052734 L 453.4262390136719 146.2320404052734 C 445.7025146484375 146.3624725341797 439.4186706542969 152.7534637451172 439.4186706542969 160.4799041748047 C 439.4186706542969 168.0963287353516 445.5279541015625 174.4174652099609 453.1015319824219 174.717041015625 L 846.3663940429688 174.717041015625 C 862.6130981445313 174.717041015625 875.7828369140625 187.8867492675781 875.7828369140625 204.1334686279297 C 875.7828369140625 220.3794708251953 862.6130981445313 233.550048828125 846.3663940429688 233.550048828125 Z M 550.2645263671875 146.1914672851563 L 124.2405319213867 146.1914672851563 C 107.9946746826172 146.1914672851563 94.82395935058594 133.0209045410156 94.82395935058594 116.7750396728516 C 94.82395935058594 100.5281829833984 107.9946746826172 87.35846710205078 124.2405319213867 87.35846710205078 L 550.2645263671875 87.35846710205078 C 566.5103759765625 87.35846710205078 579.6810913085938 100.5281829833984 579.6810913085938 116.7750396728516 C 579.6810913085938 133.0209045410156 566.5103759765625 146.1914672851563 550.2645263671875 146.1914672851563 Z M 483.4071044921875 87.15418243408203 L 423.78125 87.15418243408203 C 431.6346740722656 87.15247344970703 438.024658203125 80.76146697998047 438.024658203125 72.90632629394531 C 438.024658203125 65.809326171875 432.8082580566406 59.90718460083008 426.0083923339844 58.83304214477539 L 359.5122375488281 58.83304214477539 C 343.2662353515625 58.83304214477539 330.0956726074219 45.66332626342773 330.0956726074219 29.41646957397461 C 330.0956726074219 13.17061328887939 343.2662353515625 4.157366129220463e-05 359.5122375488281 4.157366129220463e-05 L 675.5040893554688 4.157366129220463e-05 C 691.7499389648438 4.157366129220463e-05 704.9205322265625 13.17061328887939 704.9205322265625 29.41646957397461 C 704.9205322265625 45.66332626342773 691.7499389648438 58.83304214477539 675.5040893554688 58.83304214477539 L 481.428955078125 58.83304214477539 C 474.6443786621094 59.91704177856445 469.4112548828125 65.85561370849609 469.4112548828125 72.90632629394531 C 469.4112548828125 80.62747192382813 475.6896667480469 87.01747131347656 483.4071044921875 87.15247344970703 L 483.4071044921875 87.15418243408203 Z" stroke="none" fill="#707070"/></g><g transform="translate(-1408 -1380.996)"><g transform="translate(2178 1880.996)"><g transform="translate(0 137.032)"><path d="M173,2824v367.071l23.911,6.411,8.277,25.647,280.188-289.384" transform="translate(-173 -2824)" fill="#d8dde6" stroke="#2158c7" stroke-linecap="round" stroke-linejoin="round" stroke-width="4"/><path d="M1817.407,2728v31.728l-96.1,48.588-7.97-67.441Z" transform="translate(-1461.042 -2728)" fill="#d0d5df" stroke="#2158c7" stroke-linecap="round" stroke-width="4"/><path d="M563.852,2870.9,482,2837.795l46.9-13.795H173l49.661,17.473-14.671,29.045" transform="translate(-173 -2824)" fill="#e4e8f0" stroke="#2158c7" stroke-linecap="round" stroke-linejoin="round" stroke-width="4"/><path d="M207,3229.066H566.584V2875H210.679Z" transform="translate(-175.732 -2828.098)" fill="#fbfcfe" stroke="#2158c7" stroke-linecap="round" stroke-linejoin="round" stroke-width="4"/><g transform="translate(149 212.969)" fill="#fff" stroke="#707070" stroke-width="1"><ellipse cx="3.5" cy="4" rx="3.5" ry="4" stroke="none"/><ellipse cx="3.5" cy="4" rx="3" ry="3.5" fill="none"/></g></g><path d="M300.6,2911.528S265.649,2723,387.963,2723c123.233-.933,90.126,188.528,90.126,188.528" transform="translate(-182.881 -2678.853)" fill="none" stroke="#2158c7" stroke-linecap="round" stroke-linejoin="round" stroke-width="10"/><path d="M300.6,2860.028S265.649,2723,387.963,2723c123.233-.678,90.126,137.029,90.126,137.029" transform="translate(-215.988 -2724.996)" fill="none" stroke="#2158c7" stroke-linecap="round" stroke-linejoin="round" stroke-width="10"/><g transform="translate(285 233)" fill="#fff" stroke="#2158c7" stroke-linecap="round" stroke-linejoin="round" stroke-width="4"><circle cx="11" cy="11" r="11" stroke="none"/><circle cx="11" cy="11" r="9" fill="none"/></g><g transform="translate(106 233)" fill="#fff" stroke="#2158c7" stroke-linecap="round" stroke-linejoin="round" stroke-width="4"><circle cx="11" cy="11" r="11" stroke="none"/><circle cx="11" cy="11" r="9" fill="none"/></g><g transform="translate(124 339)" fill="#2158c7" stroke="#2158c7" stroke-linecap="round" stroke-linejoin="round" stroke-width="4"><circle cx="18.5" cy="18.5" r="18.5" stroke="none"/><circle cx="18.5" cy="18.5" r="16.5" fill="none"/></g><g transform="translate(266 339)" fill="#2158c7" stroke="#2158c7" stroke-linecap="round" stroke-linejoin="round" stroke-width="4"><circle cx="18.5" cy="18.5" r="18.5" stroke="none"/><circle cx="18.5" cy="18.5" r="16.5" fill="none"/></g><path d="M375,3171.768s3.382-31.268,33.736-31.268,34.879,27.59,34.879,27.59" transform="translate(-195.948 -2712.398)" fill="none" stroke="#2158c7" stroke-linecap="round" stroke-linejoin="round" stroke-width="4"/><g transform="translate(104 399)" fill="#fae2d5" stroke="#2158c7" stroke-linecap="round" stroke-linejoin="round" stroke-width="4"><ellipse cx="14.5" cy="15" rx="14.5" ry="15" stroke="none"/><ellipse cx="14.5" cy="15" rx="12.5" ry="13" fill="none"/></g><g transform="translate(300 399)" fill="#fae2d5" stroke="#2158c7" stroke-linecap="round" stroke-linejoin="round" stroke-width="4"><ellipse cx="14.5" cy="15" rx="14.5" ry="15" stroke="none"/><ellipse cx="14.5" cy="15" rx="12.5" ry="13" fill="none"/></g><g transform="translate(292 352)" fill="#fff" stroke="#707070" stroke-width="1"><ellipse cx="3.5" cy="4" rx="3.5" ry="4" stroke="none"/><ellipse cx="3.5" cy="4" rx="3" ry="3.5" fill="none"/></g><g transform="translate(146 352)" fill="#fff" stroke="#707070" stroke-width="1"><circle cx="4" cy="4" r="4" stroke="none"/><circle cx="4" cy="4" r="3.5" fill="none"/></g></g></g><g transform="translate(1081 559)" fill="none" stroke="#fb9600" stroke-width="6" opacity="0.53"><circle cx="17.5" cy="17.5" r="17.5" stroke="none"/><circle cx="17.5" cy="17.5" r="14.5" fill="none"/></g><g transform="translate(1391 631)" fill="none" stroke="#52af87" stroke-width="6" opacity="0.53"><circle cx="20" cy="20" r="20" stroke="none"/><circle cx="20" cy="20" r="17" fill="none"/></g><g transform="translate(606 655)" fill="none" stroke="#e93e49" stroke-width="6" opacity="0.53"><circle cx="15" cy="15" r="15" stroke="none"/><circle cx="15" cy="15" r="12" fill="none"/></g><g transform="translate(788 380)" fill="none" stroke="#606dc5" stroke-width="6" opacity="0.53"><circle cx="17.5" cy="17.5" r="17.5" stroke="none"/><circle cx="17.5" cy="17.5" r="14.5" fill="none"/></g><g transform="translate(1207 410)" fill="none" stroke="#0090df" stroke-width="6" opacity="0.53"><circle cx="15" cy="15" r="15" stroke="none"/><circle cx="15" cy="15" r="12" fill="none"/></g><g transform="translate(560 878)" fill="none" stroke="#008fd7" stroke-width="6" opacity="0.53"><circle cx="15" cy="15" r="15" stroke="none"/><circle cx="15" cy="15" r="12" fill="none"/></g><g transform="translate(1317.45 517.276)" opacity="0.53"><g transform="translate(23.5 0)"><path d="M2799,3947v-17" transform="translate(-2799 -3930)" fill="none" stroke="#fb9600" stroke-linecap="round" stroke-width="5"/><path d="M2799,3947v-17" transform="translate(-2799 -3900)" fill="none" stroke="#fb9600" stroke-linecap="round" stroke-width="5"/></g><g transform="translate(47 23.5) rotate(90)"><path d="M0,17V0" fill="none" stroke="#fb9600" stroke-linecap="round" stroke-width="5"/><path d="M0,17V0" transform="translate(0 30)" fill="none" stroke="#fb9600" stroke-linecap="round" stroke-width="5"/></g></g><g transform="translate(687.006 475.645)" opacity="0.53"><g transform="translate(23.5 0)"><path d="M2799,3947v-17" transform="translate(-2799 -3930)" fill="none" stroke="#8db243" stroke-linecap="round" stroke-width="5"/><path d="M2799,3947v-17" transform="translate(-2799 -3900)" fill="none" stroke="#8db243" stroke-linecap="round" stroke-width="5"/></g><g transform="translate(47 23.5) rotate(90)"><path d="M0,17V0" fill="none" stroke="#8db243" stroke-linecap="round" stroke-width="5"/><path d="M0,17V0" transform="translate(0 30)" fill="none" stroke="#8db243" stroke-linecap="round" stroke-width="5"/></g></g><g transform="translate(534.834 750.125)" opacity="0.53"><g transform="translate(28 0) rotate(90)"><g transform="translate(14)"><path d="M0,7V0" transform="translate(0 21)" fill="none" stroke="#39a2ae" stroke-linecap="round" stroke-width="5"/><path d="M0,7V0" fill="none" stroke="#39a2ae" stroke-linecap="round" stroke-width="5"/></g><g transform="translate(28 14) rotate(90)"><path d="M0,7V0" transform="translate(0 21)" fill="none" stroke="#39a2ae" stroke-linecap="round" stroke-width="5"/><path d="M0,7V0" fill="none" stroke="#39a2ae" stroke-linecap="round" stroke-width="5"/></g></g></g><g transform="translate(1310.834 878.962)" opacity="0.53"><g transform="translate(28 0) rotate(90)"><g transform="translate(14)"><path d="M0,7V0" transform="translate(0 21)" fill="none" stroke="#9299a5" stroke-linecap="round" stroke-width="5"/><path d="M0,7V0" fill="none" stroke="#9299a5" stroke-linecap="round" stroke-width="5"/></g><g transform="translate(28 14) rotate(90)"><path d="M0,7V0" transform="translate(0 21)" fill="none" stroke="#9299a5" stroke-linecap="round" stroke-width="5"/><path d="M0,7V0" fill="none" stroke="#9299a5" stroke-linecap="round" stroke-width="5"/></g></g></g><g transform="matrix(0.788, 0.616, -0.616, 0.788, 1065.636, 356.571)" fill="#fff" opacity="0.53"><path d="M 44.65554428100586 51.65633392333984 L 31.31533050537109 43.40296173095703 L 30 42.58919143676758 L 28.68466949462891 43.40296173095703 L 15.34445667266846 51.65633392333984 L 19.07917976379395 36.43709945678711 L 19.44853973388672 34.93193054199219 L 18.26472091674805 33.93167877197266 L 6.290740966796875 23.81442451477051 L 21.9340705871582 22.65950012207031 L 23.47776985168457 22.54553985595703 L 24.0638599395752 21.11289024353027 L 30 6.602596759796143 L 35.93613815307617 21.11289024353027 L 36.5222282409668 22.54553985595703 L 38.0659294128418 22.65950012207031 L 53.70925903320313 23.81442451477051 L 41.73527908325195 33.93167877197266 L 40.55146026611328 34.93193054199219 L 40.92081832885742 36.43709945678711 L 44.65554428100586 51.65633392333984 Z" stroke="none"/><path d="M 30 13.20520401000977 L 26.37772369384766 22.05948638916016 L 25.20553588867188 24.92477416992188 L 22.11813735961914 25.15271186828613 L 12.58149719238281 25.85679054260254 L 19.87822341918945 32.02206420898438 L 22.24587631225586 34.02257537841797 L 21.50714874267578 37.03291320800781 L 19.22994232177734 46.31268310546875 L 27.36935043334961 41.27696228027344 L 30 39.6494140625 L 32.63064956665039 41.27696228027344 L 40.77005767822266 46.31268310546875 L 38.49285125732422 37.03291320800781 L 37.75412750244141 34.02257537841797 L 40.12177276611328 32.02206420898438 L 47.41850280761719 25.85679054260254 L 37.88186264038086 25.15271186828613 L 34.79446411132813 24.92477416992188 L 33.62227630615234 22.05948638916016 L 30 13.20520401000977 M 30 0 L 38.25 20.16628646850586 L 60 21.77206420898438 L 43.34877777099609 35.84128570556641 L 48.54101181030273 57 L 30 45.52897644042969 L 11.45898818969727 57 L 16.65122604370117 35.84128570556641 L 0 21.77206420898438 L 21.75 20.16628646850586 L 30 0 Z" stroke="none" fill="#fb9600"/></g><g transform="translate(461.353 609.325) rotate(80)" fill="#fff" opacity="0.53"><path d="M 12.26688861846924 37.57762145996094 L 14.64266014099121 27.61825942993164 L 14.99411010742188 26.14495086669922 L 13.85093975067139 25.15130996704102 L 6.157361507415771 18.4640998840332 L 16.13932037353516 17.70598983764648 L 17.69610977172852 17.58776092529297 L 18.27304077148438 16.13699913024902 L 22 6.765283107757568 L 25.72695922851563 16.13698959350586 L 26.30389022827148 17.58774948120117 L 27.86067008972168 17.70598030090332 L 37.8426399230957 18.46409606933594 L 30.14904975891113 25.15130996704102 L 29.00588035583496 26.14495086669922 L 29.35733032226563 27.61825942993164 L 31.73310661315918 37.57761764526367 L 23.34230995178223 32.23733901977539 L 22 31.3830394744873 L 20.65769004821777 32.23733901977539 L 12.26688861846924 37.57762145996094 Z" stroke="none"/><path d="M 22 13.53059577941895 L 20.59608840942383 17.06083297729492 L 19.44221115112305 19.96233367919922 L 16.32865524291992 20.19881057739258 L 12.31472778320313 20.503662109375 L 15.49098968505859 23.26444435119629 L 17.77734375 25.25172233581543 L 17.07443428039551 28.19834518432617 L 16.13052940368652 32.15523910522461 L 19.31537818908691 30.12825584411621 L 22 28.41964340209961 L 24.68462181091309 30.12825584411621 L 27.86947059631348 32.15523910522461 L 26.92556571960449 28.19834518432617 L 26.22265625 25.25172233581543 L 28.50899887084961 23.26444435119629 L 31.68526268005371 20.50365829467773 L 27.67135620117188 20.19881057739258 L 24.55778884887695 19.96234512329102 L 23.40391159057617 17.06083297729492 L 22 13.53059577941895 M 22 0 L 28.04999923706055 15.21316719055176 L 44 16.42453384399414 L 31.78910064697266 27.03816604614258 L 35.59674453735352 43 L 22 34.34641265869141 L 8.403255462646484 43 L 12.21089935302734 27.03816604614258 L 0 16.42454528808594 L 15.95000076293945 15.21316719055176 L 22 0 Z" stroke="none" fill="#70c5ae"/></g><g transform="translate(1217.733 510.866) rotate(57)" fill="#fff" opacity="0.53"><path d="M 44.65554428100586 51.65633392333984 L 31.31533050537109 43.40296173095703 L 30 42.58919143676758 L 28.68466949462891 43.40296173095703 L 15.34445667266846 51.65633392333984 L 19.07917976379395 36.43709945678711 L 19.44853973388672 34.93193054199219 L 18.26472091674805 33.93167877197266 L 6.290740966796875 23.81442451477051 L 21.9340705871582 22.65950012207031 L 23.47776985168457 22.54553985595703 L 24.0638599395752 21.11289024353027 L 30 6.602596759796143 L 35.93613815307617 21.11289024353027 L 36.5222282409668 22.54553985595703 L 38.0659294128418 22.65950012207031 L 53.70925903320313 23.81442451477051 L 41.73527908325195 33.93167877197266 L 40.55146026611328 34.93193054199219 L 40.92081832885742 36.43709945678711 L 44.65554428100586 51.65633392333984 Z" stroke="none"/><path d="M 30 13.20520401000977 L 26.37772369384766 22.05948638916016 L 25.20553588867188 24.92477416992188 L 22.11813735961914 25.15271186828613 L 12.58149719238281 25.85679054260254 L 19.87822341918945 32.02206420898438 L 22.24587631225586 34.02257537841797 L 21.50714874267578 37.03291320800781 L 19.22994232177734 46.31268310546875 L 27.36935043334961 41.27696228027344 L 30 39.6494140625 L 32.63064956665039 41.27696228027344 L 40.77005767822266 46.31268310546875 L 38.49285125732422 37.03291320800781 L 37.75412750244141 34.02257537841797 L 40.12177276611328 32.02206420898438 L 47.41850280761719 25.85679054260254 L 37.88186264038086 25.15271186828613 L 34.79446411132813 24.92477416992188 L 33.62227630615234 22.05948638916016 L 30 13.20520401000977 M 30 0 L 38.25 20.16628646850586 L 60 21.77206420898438 L 43.34877777099609 35.84128570556641 L 48.54101181030273 57 L 30 45.52897644042969 L 11.45898818969727 57 L 16.65122604370117 35.84128570556641 L 0 21.77206420898438 L 21.75 20.16628646850586 L 30 0 Z" stroke="none" fill="#70c5ae"/></g><g transform="translate(1219.484 870.592) rotate(84)" fill="#fff" opacity="0.53"><path d="M 28.47520446777344 32.65633773803711 L 21.31533050537109 28.22664070129395 L 20 27.41287040710449 L 18.68466949462891 28.22664070129395 L 11.52479457855225 32.65633773803711 L 13.52877044677734 24.48999977111816 L 13.89813041687012 22.98483085632324 L 12.71430969238281 21.98457908630371 L 6.290740013122559 16.55707168579102 L 14.68406963348389 15.93739986419678 L 16.22776985168457 15.82343006134033 L 16.8138599395752 14.39078998565674 L 20 6.602595329284668 L 23.1861400604248 14.39078998565674 L 23.77223014831543 15.82343006134033 L 25.3159294128418 15.93739986419678 L 33.70925903320313 16.55707168579102 L 27.28569030761719 21.98457908630371 L 26.10186958312988 22.98483085632324 L 26.47122955322266 24.48999977111816 L 28.47520446777344 32.65633773803711 Z" stroke="none"/><path d="M 20 13.20518112182617 L 19.12771987915039 15.33737945556641 L 17.95553016662598 18.20268058776855 L 14.86813926696777 18.43062019348145 L 12.58149147033691 18.59944152832031 L 14.32781028747559 20.07497024536133 L 16.69545936584473 22.07548141479492 L 15.95673942565918 25.0858097076416 L 15.41028022766113 27.31267547607422 L 17.36935043334961 26.10062980651855 L 20 24.47309112548828 L 22.63064956665039 26.10062980651855 L 24.5897102355957 27.31266784667969 L 24.04325103759766 25.0858097076416 L 23.30452919006348 22.07548141479492 L 25.67218017578125 20.07497024536133 L 27.41850280761719 18.59943962097168 L 25.13185882568359 18.43062019348145 L 22.04446983337402 18.20268058776855 L 20.87228012084961 15.33737945556641 L 20 13.20518112182617 M 20 0 L 25.5 13.44418907165527 L 40 14.51470947265625 L 28.8991813659668 23.89418983459473 L 32.36067962646484 38 L 20 30.3526496887207 L 7.639320373535156 38 L 11.10080909729004 23.89418983459473 L 0 14.51470947265625 L 14.5 13.44418907165527 L 20 0 Z" stroke="none" fill="#f6a28c"/></g></g></g></svg>